<svg xmlns="http://www.w3.org/2000/svg" xmlns:xlink="http://www.w3.org/1999/xlink" width="500" zoomAndPan="magnify" viewBox="0 0 375 374.999991" height="500" preserveAspectRatio="xMidYMid meet" version="1.0"><defs><clipPath id="8078545718"><path d="M 302 195 L 333 195 L 333 306.339844 L 302 306.339844 Z M 302 195 " clip-rule="nonzero"/></clipPath><clipPath id="6de27fbf3c"><path d="M 181 194 L 212 194 L 212 306.339844 L 181 306.339844 Z M 181 194 " clip-rule="nonzero"/></clipPath><clipPath id="067157b2c0"><path d="M 261 204 L 292 204 L 292 306.339844 L 261 306.339844 Z M 261 204 " clip-rule="nonzero"/></clipPath><clipPath id="c98306ca2d"><path d="M 221 232 L 252 232 L 252 306.339844 L 221 306.339844 Z M 221 232 " clip-rule="nonzero"/></clipPath><clipPath id="047332b139"><path d="M 343 248 L 373.339844 248 L 373.339844 306.339844 L 343 306.339844 Z M 343 248 " clip-rule="nonzero"/></clipPath><clipPath id="06d8776a41"><path d="M 1.339844 257 L 28 257 L 28 284 L 1.339844 284 Z M 1.339844 257 " clip-rule="nonzero"/></clipPath><clipPath id="ba22ffc374"><path d="M 86 68.589844 L 133 68.589844 L 133 151 L 86 151 Z M 86 68.589844 " clip-rule="nonzero"/></clipPath></defs><g clip-path="url(#8078545718)"><path fill="#66cc8a" d="M 332.859375 250.863281 C 332.859375 233.101562 332.828125 215.335938 332.902344 197.574219 C 332.910156 195.660156 332.535156 194.980469 330.453125 195.015625 C 322.101562 195.144531 313.75 195.117188 305.398438 195.03125 C 303.660156 195.015625 302.933594 195.296875 302.9375 197.300781 C 303 232.824219 303 268.351562 302.9375 303.875 C 302.9375 305.863281 303.636719 306.171875 305.390625 306.152344 C 313.738281 306.070312 322.09375 306.042969 330.441406 306.167969 C 332.511719 306.199219 332.910156 305.554688 332.902344 303.617188 C 332.828125 286.03125 332.859375 268.449219 332.859375 250.863281 Z M 332.859375 250.863281 " fill-opacity="1" fill-rule="nonzero"/></g><g clip-path="url(#6de27fbf3c)"><path fill="#66cc8a" d="M 208.816406 194.929688 C 200.636719 195.011719 192.460938 195.046875 184.285156 194.910156 C 181.996094 194.875 181.273438 195.386719 181.289062 197.816406 C 181.402344 215.410156 181.351562 233.003906 181.351562 250.59375 C 181.351562 268.273438 181.375 285.957031 181.3125 303.640625 C 181.304688 305.515625 181.632812 306.296875 183.757812 306.261719 C 192.113281 306.136719 200.46875 306.160156 208.824219 306.25 C 210.640625 306.265625 211.265625 305.816406 211.261719 303.894531 C 211.207031 268.351562 211.207031 232.808594 211.261719 197.265625 C 211.265625 195.339844 210.617188 194.910156 208.816406 194.929688 Z M 208.816406 194.929688 " fill-opacity="1" fill-rule="nonzero"/></g><g clip-path="url(#067157b2c0)"><path fill="#66cc8a" d="M 291.824219 207.242188 C 291.824219 205.246094 291.082031 204.945312 289.34375 204.960938 C 281.351562 205.039062 273.351562 205.101562 265.355469 204.933594 C 262.761719 204.878906 261.90625 205.414062 261.933594 208.234375 C 262.089844 223.953125 262.011719 239.675781 262.011719 255.398438 C 262.011719 271.386719 262.046875 287.375 261.96875 303.363281 C 261.957031 305.523438 262.519531 306.300781 264.792969 306.269531 C 272.960938 306.144531 281.140625 306.183594 289.316406 306.25 C 291.03125 306.261719 291.832031 306 291.828125 303.972656 C 291.761719 271.730469 291.761719 239.484375 291.824219 207.242188 Z M 291.824219 207.242188 " fill-opacity="1" fill-rule="nonzero"/></g><g clip-path="url(#c98306ca2d)"><path fill="#66cc8a" d="M 248.761719 232.347656 C 240.492188 232.46875 232.226562 232.445312 223.960938 232.359375 C 222.136719 232.34375 221.519531 232.828125 221.523438 234.734375 C 221.582031 257.75 221.582031 280.765625 221.523438 303.78125 C 221.523438 305.691406 222.140625 306.171875 223.964844 306.152344 C 232.234375 306.070312 240.5 306.046875 248.765625 306.164062 C 250.941406 306.199219 251.636719 305.644531 251.617188 303.378906 C 251.5 292.003906 251.5625 280.628906 251.5625 269.257812 C 251.5625 257.882812 251.5 246.507812 251.617188 235.132812 C 251.640625 232.867188 250.9375 232.316406 248.761719 232.347656 Z M 248.761719 232.347656 " fill-opacity="1" fill-rule="nonzero"/></g><g clip-path="url(#047332b139)"><path fill="#66cc8a" d="M 370.925781 248.160156 C 362.582031 248.246094 354.234375 248.269531 345.890625 248.148438 C 343.734375 248.121094 343.007812 248.648438 343.042969 250.917969 C 343.175781 259.613281 343.097656 268.308594 343.097656 277.007812 C 343.097656 285.886719 343.140625 294.757812 343.0625 303.632812 C 343.042969 305.5625 343.574219 306.285156 345.605469 306.265625 C 354.039062 306.167969 362.472656 306.167969 370.90625 306.257812 C 372.796875 306.277344 373.335938 305.613281 373.328125 303.785156 C 373.277344 286.035156 373.28125 268.285156 373.335938 250.535156 C 373.347656 248.644531 372.765625 248.136719 370.925781 248.160156 Z M 370.925781 248.160156 " fill-opacity="1" fill-rule="nonzero"/></g><path fill="#66cc8a" d="M 254.207031 114.253906 C 254.214844 113.628906 254.257812 113.007812 254.226562 112.386719 C 253.839844 104.765625 247.410156 98.933594 240.410156 99.851562 C 230.191406 101.191406 225.613281 110.414062 230.53125 119.753906 L 233.652344 122.984375 C 240.898438 127.402344 247.417969 125.921875 252.863281 118.625 C 253.308594 117.171875 253.757812 115.714844 254.207031 114.253906 Z M 241.335938 118.824219 C 237.796875 118.867188 235.09375 116.273438 235.007812 112.742188 C 234.921875 109.191406 237.765625 106.222656 241.269531 106.203125 C 244.59375 106.183594 247.605469 109.082031 247.714844 112.398438 C 247.824219 115.804688 244.867188 118.78125 241.335938 118.828125 Z M 241.335938 118.824219 " fill-opacity="1" fill-rule="nonzero"/><g clip-path="url(#06d8776a41)"><path fill="#66cc8a" d="M 11.433594 257.792969 C 5.65625 259.0625 1.34375 264.398438 1.367188 270.460938 C 1.394531 276.574219 5.863281 281.855469 11.949219 282.960938 C 18.035156 284.066406 23.925781 280.855469 26.097656 275.261719 C 28.304688 269.578125 26.78125 264.742188 22.746094 260.472656 L 18.757812 258.214844 C 16.339844 257.640625 13.953125 257.242188 11.433594 257.792969 Z M 20.644531 270.570312 C 20.484375 274.09375 17.484375 276.816406 13.914062 276.679688 C 10.460938 276.546875 7.882812 273.726562 7.96875 270.171875 C 8.046875 266.742188 10.953125 263.910156 14.320312 263.980469 C 17.75 264.054688 20.796875 267.230469 20.644531 270.570312 Z M 20.644531 270.570312 " fill-opacity="1" fill-rule="nonzero"/></g><path fill="#66cc8a" d="M 345.738281 97.816406 C 347.925781 98.816406 350.152344 99.488281 352.636719 99.4375 C 358.734375 99.308594 363.894531 95.097656 365.070312 89.074219 C 366.167969 83.445312 362.992188 77.214844 357.871094 74.957031 C 352.121094 72.417969 345.417969 74.15625 341.976562 79.164062 C 338.296875 84.527344 338.96875 89.8125 342.449219 94.988281 Z M 352.625 80.210938 C 355.953125 80.335938 358.71875 83.28125 358.691406 86.679688 C 358.664062 90.335938 355.875 93.097656 352.308594 93.003906 C 348.855469 92.914062 345.90625 89.871094 345.996094 86.488281 C 346.085938 83.195312 349.363281 80.089844 352.625 80.210938 Z M 352.625 80.210938 " fill-opacity="1" fill-rule="nonzero"/><path fill="#66cc8a" d="M 311.066406 156.222656 C 317.636719 152.09375 318.769531 143.609375 313.671875 136.722656 L 310.289062 134.019531 C 304.6875 131.613281 299.53125 132.238281 294.878906 136.285156 L 292.261719 140 C 292.042969 140.855469 291.804688 141.703125 291.609375 142.558594 C 290.421875 147.792969 292.355469 152.929688 296.621094 155.902344 C 301.054688 158.996094 306.46875 159.113281 311.066406 156.222656 Z M 297.65625 145.527344 C 297.648438 142.042969 300.554688 139.171875 304.074219 139.179688 C 307.734375 139.183594 310.46875 141.902344 310.457031 145.519531 C 310.445312 148.910156 307.335938 151.9375 303.953125 151.855469 C 300.734375 151.777344 297.65625 148.683594 297.652344 145.523438 Z M 297.65625 145.527344 " fill-opacity="1" fill-rule="nonzero"/><path fill="#66cc8a" d="M 113.066406 206.25 C 107.644531 204.601562 102.8125 205.582031 98.636719 209.488281 L 96.183594 213.523438 C 96.085938 213.957031 96.003906 214.394531 95.890625 214.824219 C 94.132812 221.359375 97.320312 227.8125 103.5 230.214844 C 109.832031 232.679688 116.765625 230.058594 119.710938 223.953125 C 122.484375 218.199219 121.019531 213.128906 116.902344 208.59375 Z M 108.1875 224.726562 C 104.804688 224.675781 101.796875 221.574219 101.859375 218.195312 C 101.925781 214.710938 104.917969 211.847656 108.40625 211.929688 C 111.65625 212.003906 114.664062 215.0625 114.660156 218.285156 C 114.65625 221.640625 111.507812 224.773438 108.1875 224.726562 Z M 108.1875 224.726562 " fill-opacity="1" fill-rule="nonzero"/><path fill="#66cc8a" d="M 159.5 148.011719 C 159.152344 147.304688 158.832031 146.582031 158.453125 145.890625 C 156.011719 141.417969 152.332031 138.894531 147.144531 138.878906 C 141.898438 138.859375 137.863281 141.152344 135.519531 145.800781 C 132.796875 151.203125 134.007812 156.25 137.6875 160.835938 L 141.386719 163.441406 C 144.261719 164.34375 147.179688 164.992188 150.167969 164.144531 C 155.972656 162.5 158.957031 158.398438 159.941406 152.632812 C 159.792969 151.09375 159.644531 149.554688 159.5 148.015625 Z M 146.992188 158.0625 C 143.480469 158.042969 140.570312 155.125 140.582031 151.640625 C 140.597656 148.160156 143.539062 145.257812 147.039062 145.269531 C 150.359375 145.277344 153.234375 148.171875 153.292969 151.558594 C 153.351562 155.046875 150.410156 158.085938 146.992188 158.0625 Z M 146.992188 158.0625 " fill-opacity="1" fill-rule="nonzero"/><path fill="#66cc8a" d="M 207.410156 146.027344 C 199.195312 141.886719 191.734375 144.441406 188.148438 152.613281 L 187.292969 156.898438 C 187.449219 157.859375 187.558594 158.828125 187.773438 159.773438 C 189.644531 167.988281 198.96875 172.210938 206.367188 168.242188 C 212.191406 165.113281 215.855469 156.964844 210.632812 149.027344 C 209.558594 148.027344 208.484375 147.027344 207.414062 146.027344 Z M 200.351562 163.332031 C 196.996094 163.378906 193.914062 160.292969 193.929688 156.90625 C 193.953125 153.304688 196.738281 150.574219 200.363281 150.601562 C 203.96875 150.628906 206.714844 153.445312 206.644531 157.039062 C 206.578125 160.316406 203.605469 163.285156 200.351562 163.332031 Z M 200.351562 163.332031 " fill-opacity="1" fill-rule="nonzero"/><path fill="#66cc8a" d="M 65.589844 194.386719 C 64.050781 186.945312 56.839844 182.625 49.5 184.617188 C 40.617188 187.035156 36.199219 198.949219 44.800781 207.011719 L 48.667969 209.28125 C 57.867188 210.480469 61.652344 208.546875 65.519531 200.679688 C 65.695312 199.082031 65.875 197.484375 66.050781 195.890625 C 65.894531 195.390625 65.695312 194.898438 65.589844 194.386719 Z M 59.402344 197.175781 C 59.300781 200.566406 56.40625 203.394531 53.046875 203.394531 C 49.582031 203.394531 46.644531 200.398438 46.695312 196.910156 C 46.746094 193.421875 49.71875 190.519531 53.179688 190.597656 C 56.644531 190.675781 59.507812 193.710938 59.402344 197.175781 Z M 59.402344 197.175781 " fill-opacity="1" fill-rule="nonzero"/><path fill="#66cc8a" d="M 141.464844 284.535156 C 122.730469 284.554688 103.996094 284.546875 85.257812 284.515625 C 83.445312 284.507812 82.582031 284.742188 82.5625 286.914062 C 82.539062 289.261719 83.742188 289.1875 85.375 289.183594 C 94.699219 289.148438 104.023438 289.164062 113.347656 289.164062 C 122.671875 289.164062 131.992188 289.164062 141.316406 289.164062 C 142.886719 289.164062 144.492188 289.570312 144.523438 286.933594 C 144.546875 284.421875 143.167969 284.53125 141.464844 284.535156 Z M 141.464844 284.535156 " fill-opacity="1" fill-rule="nonzero"/><path fill="#66cc8a" d="M 141.820312 293.59375 C 132.320312 293.632812 122.820312 293.613281 113.320312 293.613281 C 103.90625 293.613281 94.496094 293.652344 85.082031 293.578125 C 83.324219 293.566406 82.558594 293.910156 82.578125 295.890625 C 82.597656 297.765625 83.171875 298.273438 85.015625 298.269531 C 103.925781 298.207031 122.839844 298.203125 141.75 298.257812 C 143.554688 298.261719 144.53125 297.980469 144.507812 295.820312 C 144.488281 293.726562 143.441406 293.585938 141.820312 293.59375 Z M 141.820312 293.59375 " fill-opacity="1" fill-rule="nonzero"/><path fill="#66cc8a" d="M 84.800781 261.03125 C 103.90625 260.964844 123.011719 260.960938 142.121094 261.019531 C 143.75 261.019531 144.5 260.726562 144.5 258.859375 C 144.496094 256.992188 143.761719 256.683594 142.125 256.695312 C 132.617188 256.757812 123.105469 256.726562 113.597656 256.726562 C 104 256.726562 94.402344 256.753906 84.804688 256.699219 C 83.28125 256.691406 82.566406 256.96875 82.597656 258.722656 C 82.628906 260.378906 82.96875 261.035156 84.800781 261.03125 Z M 84.800781 261.03125 " fill-opacity="1" fill-rule="nonzero"/><path fill="#66cc8a" d="M 85.277344 270.066406 C 104.117188 270.050781 122.957031 270.050781 141.800781 270.066406 C 143.285156 270.066406 144.488281 270.246094 144.523438 267.988281 C 144.554688 265.566406 143.210938 265.777344 141.65625 265.78125 C 132.324219 265.800781 122.992188 265.804688 113.660156 265.792969 C 104.238281 265.792969 94.820312 265.804688 85.398438 265.78125 C 83.824219 265.78125 82.535156 265.589844 82.574219 268 C 82.601562 270.257812 83.792969 270.070312 85.277344 270.066406 Z M 85.277344 270.066406 " fill-opacity="1" fill-rule="nonzero"/><path fill="#66cc8a" d="M 44.800781 207.011719 C 36.117188 224.078125 27.433594 241.148438 18.75 258.214844 C 20.5 258.226562 21.757812 259.109375 22.738281 260.472656 C 25.652344 254.703125 28.5625 248.929688 31.472656 243.160156 C 37.199219 231.863281 42.929688 220.570312 48.667969 209.28125 C 47.03125 209.117188 45.558594 208.675781 44.800781 207.011719 Z M 44.800781 207.011719 " fill-opacity="1" fill-rule="nonzero"/><path fill="#66cc8a" d="M 18.753906 258.214844 L 22.742188 260.472656 C 21.757812 259.109375 20.5 258.226562 18.753906 258.214844 Z M 18.753906 258.214844 " fill-opacity="1" fill-rule="nonzero"/><path fill="#66cc8a" d="M 44.800781 207.011719 C 45.558594 208.675781 47.03125 209.117188 48.667969 209.28125 Z M 44.800781 207.011719 " fill-opacity="1" fill-rule="nonzero"/><path fill="#66cc8a" d="M 137.6875 160.835938 L 113.066406 206.25 C 114.878906 206.148438 116.023438 207.160156 116.898438 208.59375 L 141.382812 163.4375 C 139.652344 163.285156 138.417969 162.417969 137.6875 160.835938 Z M 137.6875 160.835938 " fill-opacity="1" fill-rule="nonzero"/><path fill="#66cc8a" d="M 113.066406 206.25 L 116.898438 208.597656 C 116.023438 207.160156 114.882812 206.148438 113.066406 206.25 Z M 113.066406 206.25 " fill-opacity="1" fill-rule="nonzero"/><path fill="#66cc8a" d="M 137.6875 160.835938 C 138.421875 162.414062 139.652344 163.28125 141.386719 163.441406 Z M 137.6875 160.835938 " fill-opacity="1" fill-rule="nonzero"/><path fill="#66cc8a" d="M 313.671875 136.722656 C 324.363281 123.753906 335.050781 110.785156 345.738281 97.816406 C 343.996094 97.621094 342.921875 96.652344 342.449219 94.992188 C 336.167969 102.519531 329.863281 110.027344 323.621094 117.582031 C 319.132812 123.023438 314.730469 128.539062 310.289062 134.019531 C 312.054688 134.121094 312.996094 135.253906 313.671875 136.722656 Z M 313.671875 136.722656 " fill-opacity="1" fill-rule="nonzero"/><path fill="#66cc8a" d="M 345.738281 97.816406 L 342.449219 94.992188 C 342.921875 96.652344 343.996094 97.621094 345.738281 97.816406 Z M 345.738281 97.816406 " fill-opacity="1" fill-rule="nonzero"/><path fill="#66cc8a" d="M 313.671875 136.722656 C 312.996094 135.253906 312.058594 134.121094 310.289062 134.019531 Z M 313.671875 136.722656 " fill-opacity="1" fill-rule="nonzero"/><path fill="#66cc8a" d="M 294.878906 136.285156 C 293.992188 135.875 293.085938 135.515625 292.230469 135.046875 C 279.550781 128.125 266.878906 121.195312 254.210938 114.261719 C 254.660156 115.996094 254.070312 117.410156 252.863281 118.636719 L 292.265625 140.003906 C 292.425781 138.269531 293.285156 137.019531 294.878906 136.285156 Z M 294.878906 136.285156 " fill-opacity="1" fill-rule="nonzero"/><path fill="#66cc8a" d="M 254.207031 114.253906 C 253.757812 115.710938 253.308594 117.171875 252.859375 118.628906 C 254.070312 117.40625 254.65625 115.992188 254.207031 114.253906 Z M 254.207031 114.253906 " fill-opacity="1" fill-rule="nonzero"/><path fill="#66cc8a" d="M 294.878906 136.285156 C 293.285156 137.019531 292.425781 138.265625 292.261719 140 Z M 294.878906 136.285156 " fill-opacity="1" fill-rule="nonzero"/><path fill="#66cc8a" d="M 98.632812 209.488281 L 66.050781 195.886719 C 66.347656 197.539062 66.78125 199.203125 65.519531 200.675781 C 68.945312 201.566406 72.066406 203.238281 75.3125 204.585938 C 82.300781 207.484375 89.230469 210.539062 96.179688 213.527344 C 96.257812 211.730469 96.933594 210.296875 98.632812 209.488281 Z M 98.632812 209.488281 " fill-opacity="1" fill-rule="nonzero"/><path fill="#66cc8a" d="M 96.179688 213.527344 L 98.632812 209.492188 C 96.933594 210.296875 96.257812 211.730469 96.179688 213.527344 Z M 96.179688 213.527344 " fill-opacity="1" fill-rule="nonzero"/><path fill="#66cc8a" d="M 66.050781 195.886719 C 65.875 197.484375 65.695312 199.082031 65.519531 200.675781 C 66.78125 199.203125 66.347656 197.539062 66.050781 195.886719 Z M 66.050781 195.886719 " fill-opacity="1" fill-rule="nonzero"/><path fill="#66cc8a" d="M 230.53125 119.757812 C 227.894531 122.738281 225.257812 125.722656 222.621094 128.703125 C 217.546875 134.476562 212.476562 140.25 207.410156 146.023438 C 209.183594 146.273438 210.03125 147.515625 210.632812 149.023438 L 233.652344 122.988281 C 231.734375 122.761719 230.859375 121.519531 230.53125 119.757812 Z M 230.53125 119.757812 " fill-opacity="1" fill-rule="nonzero"/><path fill="#66cc8a" d="M 230.53125 119.757812 C 230.859375 121.523438 231.734375 122.761719 233.648438 122.988281 Z M 230.53125 119.757812 " fill-opacity="1" fill-rule="nonzero"/><path fill="#66cc8a" d="M 207.410156 146.027344 C 208.488281 147.023438 209.558594 148.023438 210.632812 149.027344 C 210.03125 147.515625 209.179688 146.273438 207.410156 146.027344 Z M 207.410156 146.027344 " fill-opacity="1" fill-rule="nonzero"/><path fill="#66cc8a" d="M 70.394531 257.253906 C 64.714844 257.253906 64.714844 257.253906 64.714844 262.835938 C 64.714844 268.789062 64.714844 268.789062 70.640625 268.789062 C 76.589844 268.789062 76.589844 268.789062 76.589844 263.386719 C 76.589844 257.253906 76.589844 257.253906 70.394531 257.253906 Z M 70.394531 257.253906 " fill-opacity="1" fill-rule="nonzero"/><path fill="#66cc8a" d="M 70.5 285.71875 C 64.714844 285.71875 64.714844 285.71875 64.714844 291.550781 C 64.714844 297.257812 64.714844 297.257812 70.539062 297.257812 C 76.589844 297.257812 76.589844 297.257812 76.589844 291.777344 C 76.589844 285.71875 76.589844 285.71875 70.5 285.71875 Z M 70.5 285.71875 " fill-opacity="1" fill-rule="nonzero"/><path fill="#66cc8a" d="M 188.140625 152.613281 L 159.5 148.011719 C 160.488281 149.46875 160.40625 151.03125 159.941406 152.628906 L 187.285156 156.894531 C 186.8125 155.324219 186.804688 153.832031 188.140625 152.613281 Z M 188.140625 152.613281 " fill-opacity="1" fill-rule="nonzero"/><path fill="#66cc8a" d="M 159.5 148.011719 C 159.644531 149.550781 159.792969 151.089844 159.941406 152.632812 C 160.414062 151.03125 160.488281 149.46875 159.5 148.011719 Z M 159.5 148.011719 " fill-opacity="1" fill-rule="nonzero"/><path fill="#66cc8a" d="M 188.140625 152.613281 C 186.804688 153.832031 186.8125 155.316406 187.285156 156.898438 Z M 188.140625 152.613281 " fill-opacity="1" fill-rule="nonzero"/><path fill="#66cc8a" d="M 52.589844 122.734375 C 45.953125 122.734375 39.257812 122.757812 32.457031 122.757812 C 35.464844 144.65625 46.34375 158.515625 65.078125 165.292969 C 82.390625 171.554688 98.9375 169.238281 114.8125 156.535156 C 110.082031 151.839844 105.476562 147.257812 100.933594 142.75 C 98.300781 144.757812 95.414062 146.292969 92.273438 147.351562 C 89.136719 148.414062 85.910156 148.941406 82.597656 148.933594 C 67.261719 148.933594 54.589844 137.53125 52.589844 122.734375 Z M 52.589844 122.734375 " fill-opacity="1" fill-rule="nonzero"/><g clip-path="url(#ba22ffc374)"><path fill="#66cc8a" d="M 112.882812 118.632812 C 112.886719 121.96875 112.351562 125.21875 111.28125 128.378906 C 110.207031 131.539062 108.652344 134.441406 106.617188 137.085938 C 111.007812 141.585938 115.398438 146.09375 119.800781 150.601562 C 133.453125 135.699219 136.507812 115.296875 127.96875 97.488281 C 119.945312 80.753906 106.726562 71.0625 86.628906 68.628906 C 86.628906 75.46875 86.613281 82.09375 86.609375 88.597656 C 101.4375 90.5625 112.882812 103.257812 112.882812 118.632812 Z M 112.882812 118.632812 " fill-opacity="1" fill-rule="nonzero"/></g><path fill="#66cc8a" d="M 77.488281 88.761719 L 77.488281 69.703125 C 54.582031 69.652344 33.902344 90.28125 33.757812 113.398438 L 52.761719 113.398438 C 54.949219 100.820312 64.894531 90.902344 77.488281 88.761719 Z M 77.488281 88.761719 " fill-opacity="1" fill-rule="nonzero"/></svg>
