<svg xmlns="http://www.w3.org/2000/svg" xmlns:xlink="http://www.w3.org/1999/xlink" width="500" zoomAndPan="magnify" viewBox="0 0 375 374.999991" height="500" preserveAspectRatio="xMidYMid meet" version="1.0"><defs><g/><clipPath id="b113a4c730"><path d="M 247 139 L 252 139 L 252 232.558594 L 247 232.558594 Z M 247 139 " clip-rule="nonzero"/></clipPath><clipPath id="b0c2007963"><path d="M 186 168 L 191 168 L 191 232.558594 L 186 232.558594 Z M 186 168 " clip-rule="nonzero"/></clipPath><clipPath id="c4fa72b0ac"><path d="M 122 193 L 127 193 L 127 232.558594 L 122 232.558594 Z M 122 193 " clip-rule="nonzero"/></clipPath><clipPath id="6ca9fd97b1"><path d="M 120.253906 90.058594 L 254.503906 90.058594 L 254.503906 231 L 120.253906 231 Z M 120.253906 90.058594 " clip-rule="nonzero"/></clipPath><clipPath id="e2ff7ada93"><path d="M 239 90.058594 L 254 90.058594 L 254 105 L 239 105 Z M 239 90.058594 " clip-rule="nonzero"/></clipPath></defs><g clip-path="url(#b113a4c730)"><path stroke-linecap="butt" transform="matrix(2.022614, 0, 0, 2.024148, 120.836056, 90.058177)" fill="none" stroke-linejoin="miter" d="M 63.599184 25.50091 L 63.599184 70.400213 " stroke="#000000" stroke-width="2" stroke-opacity="1" stroke-miterlimit="10"/></g><g clip-path="url(#b0c2007963)"><path stroke-linecap="butt" transform="matrix(2.022614, 0, 0, 2.024148, 120.836056, 90.058177)" fill="none" stroke-linejoin="miter" d="M 33.299208 70.400213 L 33.299208 39.700561 " stroke="#000000" stroke-width="2" stroke-opacity="1" stroke-miterlimit="10"/></g><g clip-path="url(#c4fa72b0ac)"><path stroke-linecap="butt" transform="matrix(2.022614, 0, 0, 2.024148, 120.836056, 90.058177)" fill="none" stroke-linejoin="miter" d="M 1.599048 70.400213 L 1.599048 52.200036 " stroke="#000000" stroke-width="2" stroke-opacity="1" stroke-miterlimit="10"/></g><g clip-path="url(#6ca9fd97b1)"><path stroke-linecap="butt" transform="matrix(2.022614, 0, 0, 2.024148, 120.836056, 90.058177)" fill="none" stroke-linejoin="miter" d="M 0.699068 40.900912 L 21.099262 20.599155 L 33.200712 32.600736 L 62.699204 3.099504 " stroke="#000000" stroke-width="2" stroke-opacity="1" stroke-miterlimit="10"/></g><g clip-path="url(#e2ff7ada93)"><path fill="#000000" d="M 239.359375 90.058594 L 253.925781 104.632812 L 253.925781 90.058594 Z M 239.359375 90.058594 " fill-opacity="1" fill-rule="nonzero"/></g><g fill="#000000" fill-opacity="1"><g transform="translate(62.976135, 276.141779)"><g><path d="M 2.84375 0 C 2.375 0 1.976562 -0.15625 1.65625 -0.46875 C 1.34375 -0.789062 1.1875 -1.1875 1.1875 -1.65625 L 1.1875 -23.328125 C 1.1875 -23.816406 1.34375 -24.210938 1.65625 -24.515625 C 1.976562 -24.828125 2.375 -24.984375 2.84375 -24.984375 L 17.3125 -24.984375 C 17.800781 -24.984375 18.191406 -24.835938 18.484375 -24.546875 C 18.785156 -24.265625 18.9375 -23.890625 18.9375 -23.421875 C 18.9375 -22.972656 18.785156 -22.609375 18.484375 -22.328125 C 18.191406 -22.054688 17.800781 -21.921875 17.3125 -21.921875 L 4.515625 -21.921875 L 4.515625 -14.140625 L 13.703125 -14.140625 C 14.171875 -14.140625 14.554688 -13.992188 14.859375 -13.703125 C 15.171875 -13.421875 15.328125 -13.054688 15.328125 -12.609375 C 15.328125 -12.160156 15.171875 -11.789062 14.859375 -11.5 C 14.554688 -11.21875 14.171875 -11.078125 13.703125 -11.078125 L 4.515625 -11.078125 L 4.515625 -1.65625 C 4.515625 -1.1875 4.351562 -0.789062 4.03125 -0.46875 C 3.707031 -0.15625 3.3125 0 2.84375 0 Z M 2.84375 0 "/></g></g></g><g fill="#000000" fill-opacity="1"><g transform="translate(90.939111, 276.141779)"><g><path d="M 13.65625 0.515625 C 11.632812 0.515625 9.828125 0.132812 8.234375 -0.625 C 6.648438 -1.382812 5.414062 -2.4375 4.53125 -3.78125 C 3.644531 -5.125 3.203125 -6.660156 3.203125 -8.390625 L 3.203125 -23.328125 C 3.203125 -23.816406 3.359375 -24.210938 3.671875 -24.515625 C 3.992188 -24.828125 4.390625 -24.984375 4.859375 -24.984375 C 5.347656 -24.984375 5.75 -24.828125 6.0625 -24.515625 C 6.375 -24.210938 6.53125 -23.816406 6.53125 -23.328125 L 6.53125 -8.390625 C 6.53125 -7.253906 6.832031 -6.238281 7.4375 -5.34375 C 8.050781 -4.445312 8.894531 -3.75 9.96875 -3.25 C 11.039062 -2.75 12.269531 -2.5 13.65625 -2.5 C 14.976562 -2.5 16.160156 -2.75 17.203125 -3.25 C 18.253906 -3.75 19.070312 -4.445312 19.65625 -5.34375 C 20.25 -6.238281 20.546875 -7.253906 20.546875 -8.390625 L 20.546875 -23.328125 C 20.546875 -23.816406 20.703125 -24.210938 21.015625 -24.515625 C 21.335938 -24.828125 21.734375 -24.984375 22.203125 -24.984375 C 22.671875 -24.984375 23.0625 -24.828125 23.375 -24.515625 C 23.6875 -24.210938 23.84375 -23.816406 23.84375 -23.328125 L 23.84375 -8.390625 C 23.84375 -6.679688 23.410156 -5.148438 22.546875 -3.796875 C 21.679688 -2.441406 20.472656 -1.382812 18.921875 -0.625 C 17.378906 0.132812 15.625 0.515625 13.65625 0.515625 Z M 13.65625 0.515625 "/></g></g></g><g fill="#000000" fill-opacity="1"><g transform="translate(125.940363, 276.141779)"><g><path d="M 4.828125 0 C 4.359375 0 3.96875 -0.148438 3.65625 -0.453125 C 3.351562 -0.765625 3.203125 -1.164062 3.203125 -1.65625 L 3.203125 -23.328125 C 3.203125 -23.816406 3.351562 -24.210938 3.65625 -24.515625 C 3.96875 -24.828125 4.359375 -24.984375 4.828125 -24.984375 C 5.066406 -24.984375 5.300781 -24.925781 5.53125 -24.8125 C 5.769531 -24.695312 5.960938 -24.554688 6.109375 -24.390625 L 20.0625 -5.828125 L 20.0625 -23.328125 C 20.0625 -23.816406 20.222656 -24.210938 20.546875 -24.515625 C 20.867188 -24.828125 21.265625 -24.984375 21.734375 -24.984375 C 22.203125 -24.984375 22.585938 -24.828125 22.890625 -24.515625 C 23.203125 -24.210938 23.359375 -23.816406 23.359375 -23.328125 L 23.359375 -1.65625 C 23.359375 -1.164062 23.203125 -0.765625 22.890625 -0.453125 C 22.585938 -0.148438 22.203125 0 21.734375 0 C 21.492188 0 21.25 -0.046875 21 -0.140625 C 20.757812 -0.234375 20.578125 -0.378906 20.453125 -0.578125 L 6.5 -19.140625 L 6.5 -1.65625 C 6.5 -1.1875 6.34375 -0.789062 6.03125 -0.46875 C 5.71875 -0.15625 5.316406 0 4.828125 0 Z M 4.828125 0 "/></g></g></g><g fill="#000000" fill-opacity="1"><g transform="translate(160.461732, 276.141779)"><g><path d="M 4.859375 0 C 4.390625 0 3.992188 -0.15625 3.671875 -0.46875 C 3.359375 -0.789062 3.203125 -1.1875 3.203125 -1.65625 L 3.203125 -23.328125 C 3.203125 -23.816406 3.359375 -24.210938 3.671875 -24.515625 C 3.992188 -24.828125 4.390625 -24.984375 4.859375 -24.984375 L 10.65625 -24.984375 C 13.0625 -24.984375 15.203125 -24.453125 17.078125 -23.390625 C 18.960938 -22.328125 20.425781 -20.847656 21.46875 -18.953125 C 22.519531 -17.066406 23.046875 -14.921875 23.046875 -12.515625 C 23.046875 -10.097656 22.519531 -7.941406 21.46875 -6.046875 C 20.425781 -4.148438 18.960938 -2.664062 17.078125 -1.59375 C 15.203125 -0.53125 13.0625 0 10.65625 0 Z M 10.65625 -2.9375 C 12.425781 -2.9375 14.007812 -3.34375 15.40625 -4.15625 C 16.800781 -4.96875 17.890625 -6.101562 18.671875 -7.5625 C 19.453125 -9.03125 19.84375 -10.679688 19.84375 -12.515625 C 19.84375 -14.347656 19.453125 -15.988281 18.671875 -17.4375 C 17.890625 -18.882812 16.800781 -20.015625 15.40625 -20.828125 C 14.007812 -21.640625 12.425781 -22.046875 10.65625 -22.046875 L 6.53125 -22.046875 L 6.53125 -2.9375 Z M 10.65625 -2.9375 "/></g></g></g><g fill="#000000" fill-opacity="1"><g transform="translate(193.479468, 276.141779)"><g><path d="M 11.140625 0.3125 C 9.066406 0.3125 7.179688 -0.15625 5.484375 -1.09375 C 3.785156 -2.03125 2.617188 -3.253906 1.984375 -4.765625 C 1.878906 -5.023438 1.828125 -5.238281 1.828125 -5.40625 C 1.828125 -5.726562 1.941406 -6.007812 2.171875 -6.25 C 2.410156 -6.5 2.734375 -6.664062 3.140625 -6.75 C 3.203125 -6.769531 3.304688 -6.78125 3.453125 -6.78125 C 3.796875 -6.78125 4.117188 -6.675781 4.421875 -6.46875 C 4.734375 -6.269531 4.96875 -6 5.125 -5.65625 C 5.507812 -4.832031 6.265625 -4.128906 7.390625 -3.546875 C 8.523438 -2.972656 9.773438 -2.6875 11.140625 -2.6875 C 12.734375 -2.6875 14.082031 -3.050781 15.1875 -3.78125 C 16.300781 -4.519531 16.859375 -5.53125 16.859375 -6.8125 C 16.859375 -8.03125 16.390625 -9.070312 15.453125 -9.9375 C 14.515625 -10.800781 13.085938 -11.328125 11.171875 -11.515625 C 8.523438 -11.773438 6.441406 -12.550781 4.921875 -13.84375 C 3.410156 -15.132812 2.65625 -16.75 2.65625 -18.6875 C 2.65625 -20.050781 3.039062 -21.226562 3.8125 -22.21875 C 4.59375 -23.21875 5.660156 -23.976562 7.015625 -24.5 C 8.378906 -25.019531 9.898438 -25.28125 11.578125 -25.28125 C 13.421875 -25.28125 14.96875 -24.90625 16.21875 -24.15625 C 17.476562 -23.414062 18.546875 -22.347656 19.421875 -20.953125 C 19.679688 -20.554688 19.8125 -20.175781 19.8125 -19.8125 C 19.8125 -19.34375 19.597656 -18.957031 19.171875 -18.65625 C 18.929688 -18.507812 18.65625 -18.4375 18.34375 -18.4375 C 18.019531 -18.4375 17.71875 -18.515625 17.4375 -18.671875 C 17.164062 -18.828125 16.953125 -19.046875 16.796875 -19.328125 C 16.222656 -20.285156 15.503906 -21.015625 14.640625 -21.515625 C 13.773438 -22.015625 12.679688 -22.265625 11.359375 -22.265625 C 9.734375 -22.265625 8.421875 -21.953125 7.421875 -21.328125 C 6.421875 -20.703125 5.921875 -19.789062 5.921875 -18.59375 C 5.921875 -17.476562 6.367188 -16.546875 7.265625 -15.796875 C 8.160156 -15.054688 9.757812 -14.570312 12.0625 -14.34375 C 14.625 -14.082031 16.609375 -13.304688 18.015625 -12.015625 C 19.421875 -10.722656 20.125 -9.019531 20.125 -6.90625 C 20.125 -5.375 19.707031 -4.054688 18.875 -2.953125 C 18.039062 -1.859375 16.9375 -1.039062 15.5625 -0.5 C 14.1875 0.0390625 12.710938 0.3125 11.140625 0.3125 Z M 11.140625 0.3125 "/></g></g></g><g fill="#000000" fill-opacity="1"><g transform="translate(223.457951, 276.141779)"><g><path d="M 4.828125 0 C 4.359375 0 3.96875 -0.148438 3.65625 -0.453125 C 3.351562 -0.765625 3.203125 -1.164062 3.203125 -1.65625 L 3.203125 -23.328125 C 3.203125 -23.816406 3.351562 -24.210938 3.65625 -24.515625 C 3.96875 -24.828125 4.359375 -24.984375 4.828125 -24.984375 C 5.066406 -24.984375 5.300781 -24.925781 5.53125 -24.8125 C 5.769531 -24.695312 5.960938 -24.554688 6.109375 -24.390625 L 20.0625 -5.828125 L 20.0625 -23.328125 C 20.0625 -23.816406 20.222656 -24.210938 20.546875 -24.515625 C 20.867188 -24.828125 21.265625 -24.984375 21.734375 -24.984375 C 22.203125 -24.984375 22.585938 -24.828125 22.890625 -24.515625 C 23.203125 -24.210938 23.359375 -23.816406 23.359375 -23.328125 L 23.359375 -1.65625 C 23.359375 -1.164062 23.203125 -0.765625 22.890625 -0.453125 C 22.585938 -0.148438 22.203125 0 21.734375 0 C 21.492188 0 21.25 -0.046875 21 -0.140625 C 20.757812 -0.234375 20.578125 -0.378906 20.453125 -0.578125 L 6.5 -19.140625 L 6.5 -1.65625 C 6.5 -1.1875 6.34375 -0.789062 6.03125 -0.46875 C 5.71875 -0.15625 5.316406 0 4.828125 0 Z M 4.828125 0 "/></g></g></g><g fill="#000000" fill-opacity="1"><g transform="translate(257.979326, 276.141779)"><g><path d="M 21.890625 -2.34375 C 21.992188 -2.0625 22.046875 -1.820312 22.046875 -1.625 C 22.046875 -1.175781 21.882812 -0.789062 21.5625 -0.46875 C 21.25 -0.15625 20.859375 0 20.390625 0 C 20.066406 0 19.757812 -0.0859375 19.46875 -0.265625 C 19.1875 -0.453125 18.976562 -0.707031 18.84375 -1.03125 L 17.0625 -5.5 L 5.5625 -5.5 L 3.75 -1.03125 C 3.59375 -0.707031 3.375 -0.453125 3.09375 -0.265625 C 2.820312 -0.0859375 2.523438 0 2.203125 0 C 1.734375 0 1.34375 -0.160156 1.03125 -0.484375 C 0.726562 -0.816406 0.578125 -1.207031 0.578125 -1.65625 C 0.578125 -1.875 0.628906 -2.125 0.734375 -2.40625 L 9.734375 -23.875 C 10.046875 -24.613281 10.566406 -24.984375 11.296875 -24.984375 C 12.066406 -24.984375 12.585938 -24.613281 12.859375 -23.875 Z M 6.6875 -8.25 L 15.9375 -8.25 L 11.359375 -19.640625 Z M 6.6875 -8.25 "/></g></g></g><g fill="#000000" fill-opacity="1"><g transform="translate(288.437683, 276.141779)"><g><path d="M 21.4375 -24.984375 C 21.90625 -24.984375 22.269531 -24.851562 22.53125 -24.59375 C 22.800781 -24.34375 22.9375 -24.015625 22.9375 -23.609375 C 22.9375 -23.359375 22.875 -23.082031 22.75 -22.78125 L 13.28125 -1.0625 C 13 -0.351562 12.5 0 11.78125 0 C 11.09375 0 10.585938 -0.351562 10.265625 -1.0625 L 0.890625 -22.5 C 0.722656 -22.945312 0.640625 -23.316406 0.640625 -23.609375 C 0.640625 -24.035156 0.769531 -24.367188 1.03125 -24.609375 C 1.300781 -24.859375 1.671875 -24.984375 2.140625 -24.984375 C 2.890625 -24.984375 3.40625 -24.65625 3.6875 -24 L 11.75 -4.671875 L 19.9375 -24 C 20.082031 -24.382812 20.269531 -24.644531 20.5 -24.78125 C 20.738281 -24.914062 21.050781 -24.984375 21.4375 -24.984375 Z M 21.4375 -24.984375 "/></g></g></g></svg>
