<svg xmlns="http://www.w3.org/2000/svg" xmlns:xlink="http://www.w3.org/1999/xlink" width="500" zoomAndPan="magnify" viewBox="0 0 375 374.999991" height="500" preserveAspectRatio="xMidYMid meet" version="1.0"><defs><clipPath id="c565b25d33"><path d="M 341 131 L 353 131 L 353 369.578125 L 341 369.578125 Z M 341 131 " clip-rule="nonzero"/></clipPath><clipPath id="aadd3cef4e"><path d="M 184 205 L 195 205 L 195 369.578125 L 184 369.578125 Z M 184 205 " clip-rule="nonzero"/></clipPath><clipPath id="e78bf78745"><path d="M 20 270 L 31 270 L 31 369.578125 L 20 369.578125 Z M 20 270 " clip-rule="nonzero"/></clipPath><clipPath id="2ff8b1e4ad"><path d="M 15.503906 5.078125 L 359.753906 5.078125 L 359.753906 364 L 15.503906 364 Z M 15.503906 5.078125 " clip-rule="nonzero"/></clipPath><clipPath id="b18ec9e0ca"><path d="M 320 5.078125 L 359 5.078125 L 359 43 L 320 43 Z M 320 5.078125 " clip-rule="nonzero"/></clipPath></defs><g clip-path="url(#c565b25d33)"><path stroke-linecap="butt" transform="matrix(5.186268, 0, 0, 5.177556, 16.99968, 5.078838)" fill="none" stroke-linejoin="miter" d="M 63.600258 25.499796 L 63.600258 70.399868 " stroke="#000000" stroke-width="2" stroke-opacity="1" stroke-miterlimit="10"/></g><g clip-path="url(#aadd3cef4e)"><path stroke-linecap="butt" transform="matrix(5.186268, 0, 0, 5.177556, 16.99968, 5.078838)" fill="none" stroke-linejoin="miter" d="M 33.30014 70.399868 L 33.30014 39.700209 " stroke="#000000" stroke-width="2" stroke-opacity="1" stroke-miterlimit="10"/></g><g clip-path="url(#e78bf78745)"><path stroke-linecap="butt" transform="matrix(5.186268, 0, 0, 5.177556, 16.99968, 5.078838)" fill="none" stroke-linejoin="miter" d="M 1.599839 70.399868 L 1.599839 52.200072 " stroke="#000000" stroke-width="2" stroke-opacity="1" stroke-miterlimit="10"/></g><g clip-path="url(#2ff8b1e4ad)"><path stroke-linecap="butt" transform="matrix(5.186268, 0, 0, 5.177556, 16.99968, 5.078838)" fill="none" stroke-linejoin="miter" d="M 0.699776 40.899797 L 21.099953 20.600344 L 33.199965 32.600002 L 62.700195 3.099931 " stroke="#000000" stroke-width="2" stroke-opacity="1" stroke-miterlimit="10"/></g><g clip-path="url(#b18ec9e0ca)"><path fill="#000000" d="M 320.914062 5.078125 L 358.257812 42.355469 L 358.257812 5.078125 Z M 320.914062 5.078125 " fill-opacity="1" fill-rule="nonzero"/></g></svg>
